<?xml version="1.0" encoding="utf-8"?>
<!-- Generator: Adobe Illustrator 21.1.0, SVG Export Plug-In . SVG Version: 6.00 Build 0)  -->
<svg version="1.1" id="Layer_1" xmlns="http://www.w3.org/2000/svg" xmlns:xlink="http://www.w3.org/1999/xlink" x="0px" y="0px"
	 viewBox="0 0 256 128" style="enable-background:new 0 0 256 128;" xml:space="preserve">
<style type="text/css">
	.st0{fill:#FFFFFF;}
	.st1{fill:#95989A;}
</style>
<g id="Union_2">
	<path class="st0" d="M116.1,112.8H3.5c-1.6,0-3-1.5-3-3.2V3.7c0-1.8,1.4-3.2,3-3.2h249.1c1.6,0,3,1.5,3,3.2v105.8
		c0,1.8-1.4,3.2-3,3.2H140.6l-12.2,14.4L116.1,112.8z"/>
	<path class="st1" d="M252.5,1c1.3,0,2.5,1.3,2.5,2.7v105.8c0,1.5-1.1,2.7-2.5,2.7H140.8h-0.5l-0.3,0.4l-11.7,13.8l-11.8-13.8
		l-0.3-0.4h-0.5H3.5c-1.3,0-2.5-1.3-2.5-2.7V3.7C1,2.3,2.1,1,3.5,1H252.5 M252.5,0H3.5C1.6,0,0,1.7,0,3.7v105.8c0,2,1.6,3.7,3.5,3.7
		h112.4l12.6,14.7l12.5-14.7h111.7c1.9,0,3.5-1.7,3.5-3.7V3.7C256,1.7,254.4,0,252.5,0L252.5,0z"/>
</g>
</svg>
